<svg width="721" height="211" viewBox="0 0 721 211" fill="none" xmlns="http://www.w3.org/2000/svg">
<path d="M58.1965 24.793C57.9945 23.3117 57.3548 22.066 56.2775 21.056C55.2002 19.9787 53.8535 19.137 52.2375 18.531C50.6888 17.925 48.9382 17.4873 46.9855 17.218C45.1002 16.9487 43.2148 16.814 41.3295 16.814C35.3368 16.814 30.6908 18.329 27.3915 21.359C24.8328 23.6483 22.9812 26.712 21.8365 30.55C20.6918 34.3207 20.1195 38.428 20.1195 42.872C20.1195 47.114 20.6918 50.851 21.8365 54.083C23.0485 57.315 24.6645 60.042 26.6845 62.264C28.7718 64.4187 31.2295 66.0683 34.0575 67.213C36.8855 68.2903 39.9828 68.829 43.3495 68.829C46.2448 68.829 49.5778 68.526 53.3485 67.92C57.1865 67.2467 60.7888 66.001 64.1555 64.183L65.3675 66.405L62.9435 70.849C59.4422 73.0037 55.9072 74.586 52.3385 75.596C48.8372 76.606 45.2348 77.111 41.5315 77.111C36.4815 77.111 31.9028 76.303 27.7955 74.687C23.6882 73.071 20.1532 70.7817 17.1905 67.819C14.2952 64.789 12.0395 61.2203 10.4235 57.113C8.80749 52.9383 7.99949 48.326 7.99949 43.276C7.99949 38.5627 8.70649 34.1187 10.1205 29.944C11.6018 25.702 13.7565 22.0323 16.5845 18.935C19.4798 15.8377 23.0148 13.38 27.1895 11.562C31.4315 9.744 36.3468 8.835 41.9355 8.835C43.2822 8.835 44.8645 8.90233 46.6825 9.037C48.5005 9.10433 50.4195 9.30633 52.4395 9.643C54.4595 9.91233 56.4795 10.35 58.4995 10.956C60.5868 11.4947 62.5732 12.2017 64.4585 13.077L64.7615 13.986L63.4485 25.197H58.4995L58.1965 24.793ZM98.6359 40.246C99.3093 38.9667 100.05 37.62 100.858 36.206C101.733 34.792 102.71 33.479 103.787 32.267C104.864 31.055 106.076 30.045 107.423 29.237C108.837 28.429 110.419 28.025 112.17 28.025C112.709 28.025 113.348 28.0923 114.089 28.227C114.897 28.2943 115.671 28.429 116.412 28.631C117.22 28.833 117.994 29.0687 118.735 29.338C119.476 29.6073 120.048 29.9103 120.452 30.247L121.159 30.853L119.947 41.761H115.604C115.402 40.953 114.863 40.145 113.988 39.337C113.18 38.4617 111.901 38.024 110.15 38.024C108.601 38.024 107.187 38.428 105.908 39.236C104.629 39.9767 103.518 40.9193 102.575 42.064C101.632 43.2087 100.892 44.4543 100.353 45.801C99.8143 47.0803 99.5449 48.2587 99.5449 49.336V56.305C99.5449 58.8637 99.5449 60.7827 99.5449 62.062C99.6123 63.3413 99.6796 64.4523 99.7469 65.395C99.8816 66.8763 100.05 68.0883 100.252 69.031C100.521 69.9063 100.925 70.5797 101.464 71.051C101.733 71.3203 102.137 71.556 102.676 71.758C103.282 71.8927 103.888 71.9937 104.494 72.061C105.1 72.1283 105.672 72.162 106.211 72.162C106.817 72.162 107.288 72.162 107.625 72.162L108.13 72.667L108.332 76L108.13 76.404C107.726 76.404 107.053 76.3703 106.11 76.303C105.167 76.2357 104.157 76.1683 103.08 76.101C102.003 76.101 100.993 76.0673 100.05 76C99.1073 76 98.4339 76 98.0299 76H91.5659C91.0946 76 90.3539 76 89.3439 76C88.4013 76.0673 87.3913 76.101 86.3139 76.101C85.2366 76.1683 84.1929 76.2357 83.1829 76.303C82.2403 76.3703 81.5333 76.404 81.0619 76.404L80.9609 76L81.1629 72.566L81.4659 72.162C82.6106 72.162 83.6879 72.1283 84.6979 72.061C85.7079 71.9263 86.4823 71.5897 87.0209 71.051C87.5596 70.5797 87.9299 69.9737 88.1319 69.233C88.4013 68.4923 88.6033 67.213 88.7379 65.395C88.8053 64.587 88.8389 63.5097 88.8389 62.163C88.8389 60.8163 88.8389 58.931 88.8389 56.507V49.134C88.8389 47.72 88.8389 46.5417 88.8389 45.599C88.8389 44.589 88.8053 43.7137 88.7379 42.973C88.7379 42.2323 88.7043 41.559 88.6369 40.953C88.6369 40.347 88.6033 39.7073 88.5359 39.034C88.4013 38.3607 88.1993 37.721 87.9299 37.115C87.6606 36.509 87.4249 36.105 87.2229 35.903C86.5496 35.0277 85.7079 34.5227 84.6979 34.388C83.6879 34.2533 82.6443 34.186 81.5669 34.186L81.1629 33.782V30.348L81.5669 30.045H83.3849C84.8663 30.045 86.7853 30.045 89.1419 30.045C91.4986 29.9777 93.5523 29.843 95.3029 29.641L98.8379 29.136L99.4439 31.055C99.0399 32.3343 98.7369 33.782 98.5349 35.398C98.4003 37.014 98.3329 38.5963 98.3329 40.145L98.6359 40.246ZM162.627 75.293C162.829 74.687 162.963 73.8117 163.031 72.667C163.165 71.5223 163.334 70.4787 163.536 69.536L163.435 69.233C162.627 70.243 161.684 71.2193 160.607 72.162C159.597 73.1047 158.452 73.9463 157.173 74.687C155.893 75.4277 154.513 76 153.032 76.404C151.618 76.8753 150.103 77.111 148.487 77.111C146.063 77.111 143.942 76.7407 142.124 76C140.306 75.2593 138.791 74.283 137.579 73.071C136.367 71.859 135.424 70.445 134.751 68.829C134.145 67.213 133.842 65.5297 133.842 63.779C133.842 61.153 134.414 58.8637 135.559 56.911C136.703 54.9583 138.218 53.376 140.104 52.164C141.854 51.0193 143.908 50.144 146.265 49.538C148.621 48.8647 150.911 48.3597 153.133 48.023C155.355 47.6863 157.375 47.4843 159.193 47.417C161.011 47.2823 162.223 47.215 162.829 47.215H164.243C164.175 45.1277 164.041 43.5117 163.839 42.367C163.637 41.155 163.367 40.145 163.031 39.337C162.425 37.9903 161.415 37.0477 160.001 36.509C158.654 35.903 157.038 35.6 155.153 35.6C154.008 35.6 152.762 35.701 151.416 35.903C150.136 36.0377 148.924 36.3407 147.78 36.812C146.635 37.2833 145.625 37.9567 144.75 38.832C143.942 39.64 143.47 40.7173 143.336 42.064L142.932 42.367H139.7L138.791 32.873L139.094 32.267C139.498 31.863 140.272 31.4253 141.417 30.954C142.561 30.4827 143.942 30.045 145.558 29.641C147.174 29.1697 148.924 28.7993 150.81 28.53C152.762 28.1933 154.715 28.025 156.668 28.025C159.294 28.025 161.751 28.3617 164.041 29.035C166.33 29.641 168.283 30.5837 169.899 31.863C171.582 33.1423 172.895 34.7583 173.838 36.711C174.78 38.5963 175.252 40.8183 175.252 43.377C175.252 46.1377 175.218 48.4943 175.151 50.447C175.151 52.3997 175.117 54.2177 175.05 55.901C174.982 57.5843 174.915 59.234 174.848 60.85C174.848 62.3987 174.848 64.1493 174.848 66.102C174.982 67.6507 175.151 68.7617 175.353 69.435C175.555 70.1083 175.891 70.647 176.363 71.051C176.901 71.5897 177.709 71.9263 178.787 72.061C179.931 72.1283 180.975 72.162 181.918 72.162L182.221 72.566L182.423 76L182.322 76.404C181.177 76.2693 179.864 76.1683 178.383 76.101C176.901 76.0337 175.521 76 174.242 76C172.356 76 170.471 76 168.586 76C166.7 76.0673 164.916 76.1683 163.233 76.303L162.627 75.293ZM162.627 64.385C162.829 64.0483 163.031 63.6443 163.233 63.173C163.502 62.7017 163.67 62.1293 163.738 61.456L164.243 52.871H163.334C161.246 52.871 159.193 53.0057 157.173 53.275C155.153 53.5443 153.335 54.0493 151.719 54.79C150.103 55.5307 148.79 56.5743 147.78 57.921C146.77 59.2677 146.265 61.0183 146.265 63.173C146.265 64.991 146.702 66.4387 147.578 67.516C148.52 68.5933 149.766 69.132 151.315 69.132C152.459 69.132 153.604 68.9973 154.749 68.728C155.961 68.3913 157.072 67.9873 158.082 67.516C159.092 67.0447 160.001 66.5397 160.809 66.001C161.617 65.395 162.223 64.8563 162.627 64.385ZM215.529 76.505L214.519 76L207.55 59.84C207.012 58.628 206.507 57.5507 206.035 56.608C205.631 55.6653 205.126 54.5543 204.52 53.275C203.914 51.9957 203.207 50.447 202.399 48.629C201.591 46.811 200.581 44.4207 199.369 41.458C198.898 40.3133 198.561 39.539 198.359 39.135C198.157 38.6637 197.888 38.1587 197.551 37.62C196.878 36.5427 196.104 35.701 195.228 35.095C194.42 34.489 193.309 34.1187 191.895 33.984L191.289 33.479V30.045L191.693 29.641C192.838 29.7757 194.05 29.9103 195.329 30.045C196.609 30.1797 197.787 30.247 198.864 30.247H206.843C207.853 30.247 209.065 30.1797 210.479 30.045C211.961 29.9103 213.307 29.7757 214.519 29.641L214.923 30.045V33.277L214.519 33.681C213.24 33.8157 212.129 34.2197 211.186 34.893C210.311 35.499 209.873 36.3743 209.873 37.519C209.873 38.327 210.109 39.6063 210.58 41.357C211.119 43.0403 211.725 44.8583 212.398 46.811C213.139 48.7637 213.846 50.6827 214.519 52.568C215.26 54.4533 215.832 55.9347 216.236 57.012L220.68 69.132L225.73 56.911C226.134 55.901 226.673 54.5543 227.346 52.871C228.02 51.1877 228.693 49.437 229.366 47.619C230.04 45.7337 230.612 43.9493 231.083 42.266C231.555 40.5153 231.79 39.1013 231.79 38.024C231.79 36.2733 231.319 35.1623 230.376 34.691C229.434 34.2197 228.323 33.883 227.043 33.681L226.639 33.277V30.045L227.043 29.641C228.323 29.9103 229.535 30.0787 230.679 30.146C231.824 30.2133 232.901 30.247 233.911 30.247H242.092C243.237 30.247 244.348 30.1797 245.425 30.045C246.57 29.9103 247.782 29.7757 249.061 29.641L249.465 30.045V33.479L248.859 33.984C247.715 34.1187 246.705 34.4553 245.829 34.994C245.021 35.4653 244.247 36.3407 243.506 37.62C242.698 38.9667 241.655 40.9193 240.375 43.478C239.163 45.9693 237.918 48.5617 236.638 51.255C235.426 53.881 234.315 56.3387 233.305 58.628C232.363 60.85 231.723 62.3313 231.386 63.072L225.932 76L215.529 76.505ZM287.372 76.404C286.9 76.404 286.193 76.3703 285.251 76.303C284.308 76.2357 283.298 76.1683 282.221 76.101C281.143 76.101 280.133 76.0673 279.191 76C278.248 76 277.541 76 277.07 76H271.616C271.144 76 270.404 76 269.394 76C268.451 76.0673 267.441 76.101 266.364 76.101C265.354 76.1683 264.344 76.2357 263.334 76.303C262.391 76.3703 261.684 76.404 261.213 76.404L261.112 76L261.314 72.566L261.617 72.162C262.627 72.162 263.67 72.1283 264.748 72.061C265.825 71.9263 266.633 71.5897 267.172 71.051C267.643 70.5797 267.98 69.9737 268.182 69.233C268.384 68.4923 268.552 67.4487 268.687 66.102C268.754 65.6307 268.788 65.1593 268.788 64.688C268.855 64.2167 268.889 63.7117 268.889 63.173C268.956 62.6343 268.99 61.9947 268.99 61.254C268.99 60.5133 268.99 59.6043 268.99 58.527V47.114C268.99 45.8347 268.99 44.8247 268.99 44.084C268.99 43.276 268.956 42.6027 268.889 42.064C268.889 41.5253 268.855 41.054 268.788 40.65C268.788 40.1787 268.754 39.64 268.687 39.034C268.552 38.3607 268.35 37.721 268.081 37.115C267.811 36.509 267.576 36.105 267.374 35.903C266.7 35.0277 265.859 34.5227 264.849 34.388C263.839 34.2533 262.795 34.186 261.718 34.186L261.314 33.782V30.348L261.718 30.045H266.869C268.417 30.045 270.067 30.045 271.818 30.045C273.568 29.9777 275.117 29.843 276.464 29.641L279.999 29.136L280.605 31.055C280.47 31.3243 280.335 31.762 280.201 32.368C280.133 32.9067 280.066 33.5127 279.999 34.186C279.999 34.792 279.965 35.4317 279.898 36.105C279.898 36.711 279.898 37.216 279.898 37.62C279.898 38.1587 279.864 38.6637 279.797 39.135C279.797 39.539 279.797 40.044 279.797 40.65C279.797 41.1887 279.763 41.8957 279.696 42.771C279.696 43.6463 279.696 44.7237 279.696 46.003V57.315C279.696 58.6617 279.696 59.7727 279.696 60.648C279.763 61.456 279.797 62.163 279.797 62.769C279.864 63.375 279.898 63.9473 279.898 64.486C279.965 64.9573 280.032 65.496 280.1 66.102C280.234 67.516 280.369 68.5933 280.504 69.334C280.706 70.0073 281.076 70.5797 281.615 71.051C282.153 71.5897 282.894 71.9263 283.837 72.061C284.847 72.1283 285.857 72.162 286.867 72.162L287.372 72.667L287.574 76L287.372 76.404ZM266.869 14.087C266.869 13.279 267.037 12.471 267.374 11.663C267.71 10.855 268.182 10.148 268.788 9.54199C269.394 8.86866 270.067 8.36366 270.808 8.027C271.616 7.623 272.457 7.421 273.333 7.421C275.016 7.421 276.531 8.128 277.878 9.54199C279.292 10.8887 279.999 12.4037 279.999 14.087C279.999 14.9623 279.797 15.804 279.393 16.612C279.056 17.3527 278.551 18.026 277.878 18.632C277.272 19.238 276.565 19.7093 275.757 20.046C274.949 20.3827 274.141 20.551 273.333 20.551C271.582 20.551 270.067 19.9113 268.788 18.632C267.508 17.3527 266.869 15.8377 266.869 14.087ZM319.86 38.327C321.409 35.3643 323.53 32.9067 326.223 30.954C328.916 29.0013 332.081 28.025 335.717 28.025C337.804 28.025 339.858 28.2943 341.878 28.833C343.898 29.3717 345.716 30.2133 347.332 31.358C349.015 32.5027 350.396 33.984 351.473 35.802C352.618 37.5527 353.358 39.64 353.695 42.064C353.897 43.8147 353.998 45.6663 353.998 47.619C354.065 49.5717 354.099 51.5243 354.099 53.477C354.166 55.7663 354.2 57.8873 354.2 59.84C354.2 61.7253 354.2 63.8127 354.2 66.102C354.2 67.6507 354.368 68.829 354.705 69.637C355.109 70.3777 355.58 70.8827 356.119 71.152C356.86 71.556 357.634 71.8253 358.442 71.96C359.317 72.0947 360.294 72.162 361.371 72.162L361.674 72.566L361.876 76L361.674 76.404C360.26 76.2693 358.678 76.1683 356.927 76.101C355.244 76.0337 353.594 76 351.978 76C350.362 76 348.746 76 347.13 76C345.514 76.0673 343.999 76.1683 342.585 76.303L341.878 74.283C342.08 73.4077 342.248 72.0947 342.383 70.344C342.585 68.5933 342.72 67.1793 342.787 66.102C342.922 63.5433 343.023 61.153 343.09 58.931C343.157 56.709 343.191 54.7227 343.191 52.972C343.191 51.4233 343.157 49.74 343.09 47.922C343.023 46.104 342.787 44.5217 342.383 43.175C341.844 41.0203 340.733 39.438 339.05 38.428C337.434 37.3507 335.549 36.812 333.394 36.812C331.374 36.812 329.522 37.1823 327.839 37.923C326.156 38.6637 324.708 39.5727 323.496 40.65C322.351 41.66 321.442 42.7373 320.769 43.882C320.096 45.0267 319.759 46.0367 319.759 46.912V57.315C319.759 58.6617 319.759 59.7727 319.759 60.648C319.759 61.456 319.759 62.163 319.759 62.769C319.826 63.375 319.86 63.9473 319.86 64.486C319.927 64.9573 319.995 65.496 320.062 66.102C320.197 67.516 320.466 68.5933 320.87 69.334C321.341 70.0073 321.846 70.5797 322.385 71.051C322.924 71.5897 323.563 71.9263 324.304 72.061C325.045 72.1283 325.92 72.162 326.93 72.162L327.435 72.667L327.637 76L327.435 76.404C326.964 76.404 326.257 76.3703 325.314 76.303C324.371 76.2357 323.361 76.1683 322.284 76.101C321.207 76.101 320.197 76.0673 319.254 76C318.311 76 317.604 76 317.133 76H311.578C311.107 76 310.366 76 309.356 76C308.413 76.0673 307.403 76.101 306.326 76.101C305.316 76.1683 304.306 76.2357 303.296 76.303C302.353 76.3703 301.646 76.404 301.175 76.404L301.074 76L301.276 72.566L301.579 72.162C302.656 72.162 303.599 72.1283 304.407 72.061C305.282 71.9263 305.989 71.5897 306.528 71.051C306.999 70.5797 307.437 69.9737 307.841 69.233C308.245 68.4923 308.514 67.4487 308.649 66.102C308.716 65.6307 308.75 65.1593 308.75 64.688C308.817 64.2167 308.851 63.7117 308.851 63.173C308.918 62.6343 308.952 61.9947 308.952 61.254C308.952 60.5133 308.952 59.6043 308.952 58.527V48.124C308.952 46.8447 308.952 45.7673 308.952 44.892C308.952 44.0167 308.918 43.2423 308.851 42.569C308.851 41.8957 308.817 41.2897 308.75 40.751C308.75 40.2123 308.716 39.64 308.649 39.034C308.514 38.3607 308.312 37.721 308.043 37.115C307.774 36.509 307.538 36.105 307.336 35.903C306.663 35.0277 305.821 34.5227 304.811 34.388C303.801 34.2533 302.757 34.186 301.68 34.186L301.276 33.782V30.348L301.68 30.045H306.831C308.38 30.045 310.029 30.045 311.78 30.045C313.598 29.9777 315.18 29.843 316.527 29.641L320.062 29.136L320.668 31.055C320.129 31.7957 319.793 32.8393 319.658 34.186C319.591 35.4653 319.557 36.7783 319.557 38.125L319.86 38.327ZM385.679 62.264C382.245 60.9173 379.753 58.7963 378.205 55.901C376.656 53.0057 375.882 49.8073 375.882 46.306C375.882 43.8147 376.319 41.458 377.195 39.236C378.07 37.014 379.316 35.095 380.932 33.479C382.615 31.7957 384.601 30.4827 386.891 29.54C389.247 28.5973 391.907 28.126 394.87 28.126C396.62 28.126 398.337 28.2943 400.021 28.631C401.771 28.9677 403.286 29.439 404.566 30.045C407.394 29.9777 410.02 29.8093 412.444 29.54C414.935 29.2707 417.258 28.833 419.413 28.227L419.918 28.631L419.211 36.206L418.706 36.711L411.131 35.903L411.03 36.206C412.107 37.418 412.949 39.034 413.555 41.054C414.161 43.074 414.464 44.993 414.464 46.811C414.464 49.033 414.026 51.154 413.151 53.174C412.343 55.194 411.131 56.9783 409.515 58.527C407.899 60.0083 405.879 61.2203 403.455 62.163C401.031 63.0383 398.236 63.476 395.072 63.476C394.668 63.476 394.129 63.476 393.456 63.476C392.85 63.4087 392.378 63.375 392.042 63.375C390.897 63.8463 390.022 64.486 389.416 65.294C388.877 66.102 388.608 66.7753 388.608 67.314C388.608 68.7953 390.19 69.738 393.355 70.142L403.152 71.152C405.374 71.4213 407.427 71.8927 409.313 72.566C411.265 73.2393 412.949 74.1483 414.363 75.293C415.844 76.3703 416.989 77.6833 417.797 79.232C418.605 80.848 419.009 82.6997 419.009 84.787C419.009 86.7397 418.571 88.6923 417.696 90.645C416.82 92.665 415.507 94.4493 413.757 95.998C412.006 97.4793 409.582 98.6913 406.485 99.634C403.387 100.577 399.819 101.048 395.779 101.048C392.143 101.048 388.978 100.644 386.285 99.836C383.659 99.0953 381.437 98.0517 379.619 96.705C377.868 95.4257 376.555 93.9443 375.68 92.261C374.804 90.645 374.367 88.9617 374.367 87.211C374.367 84.383 375.276 81.858 377.094 79.636C378.979 77.4813 381.369 75.9663 384.265 75.091L384.366 74.788C382.75 74.182 381.437 73.4413 380.427 72.566C379.484 71.6233 379.013 70.4787 379.013 69.132C379.013 67.3813 379.72 65.9673 381.134 64.89C382.548 63.8127 384.063 63.072 385.679 62.668V62.264ZM395.274 56.507C396.62 56.507 397.799 56.2377 398.809 55.699C399.886 55.1603 400.795 54.4533 401.536 53.578C402.276 52.7027 402.815 51.6927 403.152 50.548C403.556 49.336 403.758 48.0903 403.758 46.811C403.758 45.4643 403.556 44.1177 403.152 42.771C402.748 41.4243 402.175 40.2123 401.435 39.135C400.694 37.9903 399.751 37.0813 398.607 36.408C397.462 35.6673 396.149 35.297 394.668 35.297C393.254 35.297 392.042 35.6337 391.032 36.307C390.022 36.913 389.146 37.721 388.406 38.731C387.732 39.741 387.227 40.8857 386.891 42.165C386.554 43.4443 386.386 44.69 386.386 45.902C386.386 47.1813 386.554 48.4607 386.891 49.74C387.295 51.0193 387.867 52.164 388.608 53.174C389.348 54.184 390.257 54.992 391.335 55.598C392.479 56.204 393.792 56.507 395.274 56.507ZM392.042 78.222C390.56 78.2893 389.281 78.5587 388.204 79.03C387.126 79.5013 386.217 80.1073 385.477 80.848C384.736 81.656 384.164 82.4977 383.76 83.373C383.423 84.3157 383.255 85.2247 383.255 86.1C383.255 88.0527 384.433 89.635 386.79 90.847C389.146 92.1263 392.345 92.766 396.385 92.766C400.021 92.766 403.084 92.16 405.576 90.948C408.067 89.8033 409.313 88.0863 409.313 85.797C409.313 84.5177 409.01 83.474 408.404 82.666C407.798 81.858 406.99 81.1847 405.98 80.646C404.97 80.1747 403.825 79.8043 402.546 79.535C401.334 79.2657 400.088 79.0637 398.809 78.929L392.042 78.222ZM495.614 35.6H484.807V49.942C484.807 52.5007 484.807 54.6217 484.807 56.305C484.807 57.9883 484.807 59.436 484.807 60.648C484.874 61.7927 484.942 62.8027 485.009 63.678C485.076 64.486 485.144 65.294 485.211 66.102C485.346 67.112 485.615 68.0883 486.019 69.031C486.423 69.9063 486.894 70.5797 487.433 71.051C487.972 71.5897 488.712 71.9263 489.655 72.061C490.665 72.1283 491.473 72.162 492.079 72.162L492.584 72.667L492.786 76L492.584 76.404C492.18 76.404 491.54 76.3703 490.665 76.303C489.79 76.2357 488.881 76.1683 487.938 76.101C486.995 76.101 486.086 76.0673 485.211 76C484.336 76 483.696 76 483.292 76H476.828C476.357 76 475.616 76 474.606 76C473.663 76.0673 472.653 76.101 471.576 76.101C470.499 76.1683 469.455 76.2357 468.445 76.303C467.502 76.3703 466.795 76.404 466.324 76.404L466.223 76L466.425 72.566L466.728 72.162C467.738 72.162 468.714 72.0947 469.657 71.96C470.6 71.758 471.374 71.3877 471.98 70.849C472.384 70.445 472.721 69.94 472.99 69.334C473.327 68.728 473.562 67.7853 473.697 66.506C473.832 65.2267 473.933 63.476 474 61.254C474.067 59.032 474.101 56.0693 474.101 52.366V35.6H468.647L468.243 35.095V30.752L468.647 30.348L474.101 28.833V23.076C474.101 16.208 475.683 10.7877 478.848 6.81499C482.08 2.77499 486.793 0.754993 492.988 0.754993C494.537 0.754993 496.22 1.09166 498.038 1.765C499.856 2.371 501.741 3.381 503.694 4.795L504.199 5.80499L502.987 14.592H499.351C499.216 12.6393 498.375 11.0907 496.826 9.946C495.277 8.80133 493.527 8.229 491.574 8.229C489.891 8.229 488.578 8.532 487.635 9.13799C486.76 9.67666 486.086 10.4173 485.615 11.36C485.211 12.2353 484.975 13.279 484.908 14.491C484.841 15.703 484.807 16.915 484.807 18.127V28.833L495.614 28.227L496.119 28.631V35.095L495.614 35.6ZM535.101 28.025C539.074 28.025 542.609 28.732 545.706 30.146C548.803 31.4927 551.396 33.3443 553.483 35.701C555.638 37.9903 557.254 40.65 558.331 43.68C559.476 46.71 560.048 49.841 560.048 53.073C560.048 56.1703 559.543 59.1667 558.533 62.062C557.523 64.9573 555.974 67.516 553.887 69.738C551.8 71.96 549.207 73.7443 546.11 75.091C543.013 76.4377 539.41 77.111 535.303 77.111C531.061 77.111 527.358 76.404 524.193 74.99C521.028 73.576 518.402 71.7243 516.315 69.435C514.295 67.1457 512.78 64.5533 511.77 61.658C510.76 58.6953 510.255 55.6653 510.255 52.568C510.255 49.2687 510.827 46.1377 511.972 43.175C513.117 40.2123 514.733 37.62 516.82 35.398C518.975 33.1087 521.567 31.3243 524.597 30.045C527.694 28.6983 531.196 28.025 535.101 28.025ZM535.202 70.142C537.289 70.142 539.107 69.6707 540.656 68.728C542.272 67.718 543.619 66.4387 544.696 64.89C545.773 63.274 546.548 61.456 547.019 59.436C547.558 57.3487 547.827 55.2277 547.827 53.073C547.827 50.9857 547.524 48.8983 546.918 46.811C546.379 44.6563 545.538 42.7373 544.393 41.054C543.316 39.3707 541.969 37.9903 540.353 36.913C538.737 35.8357 536.885 35.297 534.798 35.297C532.643 35.297 530.758 35.802 529.142 36.812C527.593 37.822 526.314 39.135 525.304 40.751C524.294 42.367 523.52 44.185 522.981 46.205C522.51 48.225 522.274 50.2787 522.274 52.366C522.274 54.5207 522.543 56.6417 523.082 58.729C523.688 60.8163 524.53 62.7353 525.607 64.486C526.752 66.1693 528.132 67.5497 529.748 68.627C531.364 69.637 533.182 70.142 535.202 70.142ZM593.224 40.246C593.898 38.9667 594.638 37.62 595.446 36.206C596.322 34.792 597.298 33.479 598.375 32.267C599.453 31.055 600.665 30.045 602.011 29.237C603.425 28.429 605.008 28.025 606.758 28.025C607.297 28.025 607.937 28.0923 608.677 28.227C609.485 28.2943 610.26 28.429 611 28.631C611.808 28.833 612.583 29.0687 613.323 29.338C614.064 29.6073 614.636 29.9103 615.04 30.247L615.747 30.853L614.535 41.761H610.192C609.99 40.953 609.452 40.145 608.576 39.337C607.768 38.4617 606.489 38.024 604.738 38.024C603.19 38.024 601.776 38.428 600.496 39.236C599.217 39.9767 598.106 40.9193 597.163 42.064C596.221 43.2087 595.48 44.4543 594.941 45.801C594.403 47.0803 594.133 48.2587 594.133 49.336V56.305C594.133 58.8637 594.133 60.7827 594.133 62.062C594.201 63.3413 594.268 64.4523 594.335 65.395C594.47 66.8763 594.638 68.0883 594.84 69.031C595.11 69.9063 595.514 70.5797 596.052 71.051C596.322 71.3203 596.726 71.556 597.264 71.758C597.87 71.8927 598.476 71.9937 599.082 72.061C599.688 72.1283 600.261 72.162 600.799 72.162C601.405 72.162 601.877 72.162 602.213 72.162L602.718 72.667L602.92 76L602.718 76.404C602.314 76.404 601.641 76.3703 600.698 76.303C599.756 76.2357 598.746 76.1683 597.668 76.101C596.591 76.101 595.581 76.0673 594.638 76C593.696 76 593.022 76 592.618 76H586.154C585.683 76 584.942 76 583.932 76C582.99 76.0673 581.98 76.101 580.902 76.101C579.825 76.1683 578.781 76.2357 577.771 76.303C576.829 76.3703 576.122 76.404 575.65 76.404L575.549 76L575.751 72.566L576.054 72.162C577.199 72.162 578.276 72.1283 579.286 72.061C580.296 71.9263 581.071 71.5897 581.609 71.051C582.148 70.5797 582.518 69.9737 582.72 69.233C582.99 68.4923 583.192 67.213 583.326 65.395C583.394 64.587 583.427 63.5097 583.427 62.163C583.427 60.8163 583.427 58.931 583.427 56.507V49.134C583.427 47.72 583.427 46.5417 583.427 45.599C583.427 44.589 583.394 43.7137 583.326 42.973C583.326 42.2323 583.293 41.559 583.225 40.953C583.225 40.347 583.192 39.7073 583.124 39.034C582.99 38.3607 582.788 37.721 582.518 37.115C582.249 36.509 582.013 36.105 581.811 35.903C581.138 35.0277 580.296 34.5227 579.286 34.388C578.276 34.2533 577.233 34.186 576.155 34.186L575.751 33.782V30.348L576.155 30.045H577.973C579.455 30.045 581.374 30.045 583.73 30.045C586.087 29.9777 588.141 29.843 589.891 29.641L593.426 29.136L594.032 31.055C593.628 32.3343 593.325 33.782 593.123 35.398C592.989 37.014 592.921 38.5963 592.921 40.145L593.224 40.246ZM688.892 75.293C689.094 74.687 689.228 73.8117 689.296 72.667C689.43 71.5223 689.599 70.4787 689.801 69.536L689.7 69.233C688.892 70.243 687.949 71.2193 686.872 72.162C685.862 73.1047 684.717 73.9463 683.438 74.687C682.158 75.4277 680.778 76 679.297 76.404C677.883 76.8753 676.368 77.111 674.752 77.111C672.328 77.111 670.207 76.7407 668.389 76C666.571 75.2593 665.056 74.283 663.844 73.071C662.632 71.859 661.689 70.445 661.016 68.829C660.41 67.213 660.107 65.5297 660.107 63.779C660.107 61.153 660.679 58.8637 661.824 56.911C662.968 54.9583 664.483 53.376 666.369 52.164C668.119 51.0193 670.173 50.144 672.53 49.538C674.886 48.8647 677.176 48.3597 679.398 48.023C681.62 47.6863 683.64 47.4843 685.458 47.417C687.276 47.2823 688.488 47.215 689.094 47.215H690.508C690.44 45.1277 690.306 43.5117 690.104 42.367C689.902 41.155 689.632 40.145 689.296 39.337C688.69 37.9903 687.68 37.0477 686.266 36.509C684.919 35.903 683.303 35.6 681.418 35.6C680.273 35.6 679.027 35.701 677.681 35.903C676.401 36.0377 675.189 36.3407 674.045 36.812C672.9 37.2833 671.89 37.9567 671.015 38.832C670.207 39.64 669.735 40.7173 669.601 42.064L669.197 42.367H665.965L665.056 32.873L665.359 32.267C665.763 31.863 666.537 31.4253 667.682 30.954C668.826 30.4827 670.207 30.045 671.823 29.641C673.439 29.1697 675.189 28.7993 677.075 28.53C679.027 28.1933 680.98 28.025 682.933 28.025C685.559 28.025 688.016 28.3617 690.306 29.035C692.595 29.641 694.548 30.5837 696.164 31.863C697.847 33.1423 699.16 34.7583 700.103 36.711C701.045 38.5963 701.517 40.8183 701.517 43.377C701.517 46.1377 701.483 48.4943 701.416 50.447C701.416 52.3997 701.382 54.2177 701.315 55.901C701.247 57.5843 701.18 59.234 701.113 60.85C701.113 62.3987 701.113 64.1493 701.113 66.102C701.247 67.6507 701.416 68.7617 701.618 69.435C701.82 70.1083 702.156 70.647 702.628 71.051C703.166 71.5897 703.974 71.9263 705.052 72.061C706.196 72.1283 707.24 72.162 708.183 72.162L708.486 72.566L708.688 76L708.587 76.404C707.442 76.2693 706.129 76.1683 704.648 76.101C703.166 76.0337 701.786 76 700.507 76C698.621 76 696.736 76 694.851 76C692.965 76.0673 691.181 76.1683 689.498 76.303L688.892 75.293ZM688.892 64.385C689.094 64.0483 689.296 63.6443 689.498 63.173C689.767 62.7017 689.935 62.1293 690.003 61.456L690.508 52.871H689.599C687.511 52.871 685.458 53.0057 683.438 53.275C681.418 53.5443 679.6 54.0493 677.984 54.79C676.368 55.5307 675.055 56.5743 674.045 57.921C673.035 59.2677 672.53 61.0183 672.53 63.173C672.53 64.991 672.967 66.4387 673.843 67.516C674.785 68.5933 676.031 69.132 677.58 69.132C678.724 69.132 679.869 68.9973 681.014 68.728C682.226 68.3913 683.337 67.9873 684.347 67.516C685.357 67.0447 686.266 66.5397 687.074 66.001C687.882 65.395 688.488 64.8563 688.892 64.385ZM39.4618 151.377L39.0578 151.074C39.0578 149.525 38.5864 148.28 37.6438 147.337C36.7684 146.327 35.6911 145.553 34.4118 145.014C33.1324 144.475 31.7521 144.105 30.2708 143.903C28.8568 143.701 27.6111 143.6 26.5338 143.6C24.1098 143.6 21.9888 144.071 20.1708 145.014C18.3528 145.957 16.8714 147.202 15.7268 148.751C14.5821 150.3 13.7068 152.084 13.1008 154.104C12.5621 156.124 12.2928 158.211 12.2928 160.366C12.2928 162.655 12.5958 164.844 13.2018 166.931C13.8751 169.018 14.8514 170.87 16.1308 172.486C17.4101 174.102 19.0261 175.415 20.9788 176.425C22.9988 177.368 25.3554 177.839 28.0488 177.839C30.3381 177.839 32.7621 177.603 35.3208 177.132C37.8794 176.661 40.1688 175.886 42.1888 174.809L43.9058 177.233L42.3908 180.061C41.6501 180.6 40.6738 181.172 39.4618 181.778C38.3171 182.317 37.0041 182.855 35.5228 183.394C34.0414 183.865 32.4254 184.269 30.6748 184.606C28.9914 184.943 27.3081 185.111 25.6248 185.111C22.3254 185.111 19.1608 184.539 16.1308 183.394C13.1681 182.182 10.5421 180.532 8.25276 178.445C6.03076 176.29 4.24642 173.732 2.89976 170.769C1.55309 167.739 0.879757 164.406 0.879757 160.77C0.879757 157.067 1.55309 153.7 2.89976 150.67C4.24642 147.64 6.09809 145.048 8.45476 142.893C10.8114 140.738 13.5384 139.055 16.6358 137.843C19.8004 136.631 23.1671 136.025 26.7358 136.025C28.3518 136.025 29.9678 136.16 31.5838 136.429C33.2671 136.631 34.8494 136.9 36.3308 137.237C37.8794 137.574 39.2598 137.978 40.4718 138.449C41.6838 138.853 42.6601 139.257 43.4008 139.661L43.7038 140.57L42.5928 151.377H39.4618ZM98.8592 182.283C99.1286 181.408 99.3306 180.263 99.4652 178.849C99.5999 177.435 99.7009 176.189 99.7682 175.112C99.9029 172.553 100.004 169.995 100.071 167.436C100.139 164.877 100.172 162.723 100.172 160.972C100.172 159.423 100.139 157.74 100.071 155.922C100.004 154.104 99.7682 152.522 99.3642 151.175C98.8256 149.02 97.6809 147.438 95.9302 146.428C94.1796 145.351 92.2269 144.812 90.0722 144.812C88.1196 144.812 86.3016 145.182 84.6182 145.923C83.0022 146.664 81.5882 147.573 80.3762 148.65C79.1642 149.727 78.2216 150.838 77.5482 151.983C76.8749 153.128 76.5382 154.104 76.5382 154.912C76.5382 158.346 76.5382 161.073 76.5382 163.093C76.5382 165.046 76.5382 166.662 76.5382 167.941C76.6056 169.22 76.6392 170.298 76.6392 171.173C76.7066 171.981 76.8076 172.957 76.9422 174.102C77.0769 175.516 77.3462 176.593 77.7502 177.334C78.1542 178.007 78.6256 178.58 79.1642 179.051C79.7029 179.59 80.3426 179.926 81.0832 180.061C81.8239 180.128 82.6992 180.162 83.7092 180.162L84.2142 180.667L84.4162 184L84.2142 184.404C83.7429 184.404 83.0359 184.37 82.0932 184.303C81.1506 184.236 80.1406 184.168 79.0632 184.101C77.9859 184.101 76.9759 184.067 76.0332 184C75.0906 184 74.3836 184 73.9122 184H68.4582C67.9869 184 67.2462 184 66.2362 184C65.2936 184.067 64.2836 184.101 63.2062 184.101C62.1962 184.168 61.1862 184.236 60.1762 184.303C59.2336 184.37 58.5266 184.404 58.0552 184.404L57.9542 184L58.1562 180.566L58.4592 180.162C59.5366 180.162 60.4792 180.128 61.2872 180.061C62.1626 179.926 62.8696 179.59 63.4082 179.051C63.9469 178.58 64.3846 177.974 64.7212 177.233C65.0579 176.492 65.2936 175.449 65.4282 174.102C65.4956 173.294 65.5629 172.486 65.6302 171.678C65.6976 170.87 65.7312 169.927 65.7312 168.85C65.7986 167.705 65.8322 166.392 65.8322 164.911C65.8322 163.362 65.8322 161.511 65.8322 159.356V137.136C65.8322 134.51 65.8322 132.288 65.8322 130.47C65.8322 128.652 65.7986 127.103 65.7312 125.824C65.7312 124.477 65.6976 123.299 65.6302 122.289C65.6302 121.212 65.5966 120.168 65.5292 119.158C65.4619 118.485 65.2262 117.879 64.8222 117.34C64.4856 116.734 64.2162 116.33 64.0142 116.128C63.3409 115.387 62.4319 114.916 61.2872 114.714C60.2099 114.445 59.1326 114.31 58.0552 114.31L57.6512 113.906V110.573L58.0552 110.169H63.7112C65.2599 110.169 66.9096 110.169 68.6602 110.169C70.4109 110.102 71.9596 109.967 73.3062 109.765L76.8412 109.26L77.4472 111.179C77.3126 111.516 77.2116 112.088 77.1442 112.896C77.0769 113.637 77.0096 114.478 76.9422 115.421C76.8749 116.296 76.8412 117.172 76.8412 118.047C76.8412 118.855 76.8412 119.495 76.8412 119.966C76.8412 121.717 76.7739 123.737 76.6392 126.026C76.5719 128.315 76.5382 130.975 76.5382 134.005C76.5382 136.833 76.5046 139.358 76.4372 141.58C76.4372 143.802 76.3699 145.418 76.2352 146.428L76.5382 146.63C77.3462 145.418 78.2889 144.206 79.3662 142.994C80.5109 141.715 81.7566 140.57 83.1032 139.56C84.5172 138.483 86.0322 137.641 87.6482 137.035C89.3316 136.362 91.1159 136.025 93.0012 136.025C95.0886 136.025 97.1422 136.294 99.1622 136.833C101.182 137.372 103 138.213 104.616 139.358C106.3 140.503 107.68 141.95 108.757 143.701C109.835 145.452 110.542 147.539 110.878 149.963C111.08 151.714 111.181 153.734 111.181 156.023C111.249 158.245 111.282 160.063 111.282 161.477V173.698C111.282 175.247 111.484 176.459 111.888 177.334C112.292 178.142 112.696 178.714 113.1 179.051C113.706 179.59 114.481 179.926 115.423 180.061C116.366 180.128 117.376 180.162 118.453 180.162L118.756 180.566L118.958 184L118.756 184.404C117.342 184.269 115.794 184.168 114.11 184.101C112.427 184.034 110.744 184 109.06 184C105.626 184 102.462 184.101 99.5662 184.303L98.8592 182.283ZM176.321 158.245L173.897 160.063C170.261 160.063 166.659 160.097 163.09 160.164C159.589 160.231 155.987 160.265 152.283 160.265H144.001C143.934 160.736 143.9 161.208 143.9 161.679C143.9 162.083 143.9 162.487 143.9 162.891C143.9 164.642 144.203 166.392 144.809 168.143C145.415 169.894 146.358 171.476 147.637 172.89C148.984 174.237 150.667 175.348 152.687 176.223C154.707 177.031 157.165 177.435 160.06 177.435C162.148 177.435 164.336 177.166 166.625 176.627C168.982 176.021 171.17 175.247 173.19 174.304L174.907 175.011V178.647L173.897 179.758C172.281 181.037 169.891 182.249 166.726 183.394C163.629 184.539 160.262 185.111 156.626 185.111C153.058 185.111 149.792 184.539 146.829 183.394C143.934 182.182 141.409 180.499 139.254 178.344C137.167 176.189 135.517 173.631 134.305 170.668C133.161 167.705 132.588 164.406 132.588 160.77C132.588 157.067 133.194 153.7 134.406 150.67C135.618 147.64 137.268 145.048 139.355 142.893C141.51 140.738 144.001 139.055 146.829 137.843C149.725 136.631 152.822 136.025 156.121 136.025C157.872 136.025 159.825 136.261 161.979 136.732C164.201 137.203 166.322 138.112 168.342 139.459C170.362 140.738 172.18 142.59 173.796 145.014C175.412 147.371 176.523 150.502 177.129 154.407L176.321 158.245ZM156.222 143.6C152.923 143.6 150.263 144.61 148.243 146.63C146.291 148.583 145.045 150.872 144.506 153.498H149.556C151.913 153.498 154.236 153.464 156.525 153.397C158.815 153.262 161.138 153.195 163.494 153.195C164.37 153.195 165.009 152.959 165.413 152.488C165.817 151.949 166.019 151.411 166.019 150.872C166.019 148.852 165.043 147.135 163.09 145.721C161.138 144.307 158.848 143.6 156.222 143.6ZM215.796 155.72C218.624 156.393 220.913 157.302 222.664 158.447C224.415 159.592 225.728 160.837 226.603 162.184C227.546 163.531 228.152 164.911 228.421 166.325C228.758 167.739 228.926 169.052 228.926 170.264C228.926 172.419 228.488 174.405 227.613 176.223C226.738 178.041 225.458 179.623 223.775 180.97C222.159 182.249 220.173 183.259 217.816 184C215.459 184.741 212.8 185.111 209.837 185.111C206.74 185.111 203.844 184.774 201.151 184.101C198.458 183.495 196.337 182.754 194.788 181.879L193.576 180.566L195.091 168.143H198.424L198.727 168.547C198.727 171.51 199.636 173.866 201.454 175.617C203.272 177.3 205.965 178.142 209.534 178.142C211.419 178.142 213.002 177.974 214.281 177.637C215.628 177.233 216.671 176.762 217.412 176.223C218.22 175.617 218.792 174.977 219.129 174.304C219.466 173.563 219.634 172.89 219.634 172.284C219.634 171.813 219.6 171.308 219.533 170.769C219.466 170.23 219.264 169.692 218.927 169.153C218.59 168.547 218.085 167.975 217.412 167.436C216.739 166.83 215.762 166.325 214.483 165.921L204.787 163.497C202.565 162.958 200.747 162.184 199.333 161.174C197.919 160.164 196.774 159.053 195.899 157.841C195.091 156.562 194.519 155.215 194.182 153.801C193.913 152.387 193.778 150.973 193.778 149.559C193.778 147.337 194.216 145.384 195.091 143.701C195.966 141.95 197.145 140.536 198.626 139.459C200.175 138.314 201.959 137.473 203.979 136.934C205.999 136.328 208.187 136.025 210.544 136.025C213.507 136.025 216.234 136.395 218.725 137.136C221.216 137.809 223.135 138.55 224.482 139.358L225.795 140.57L224.684 150.367H221.553L221.149 150.064C221.149 148.583 220.745 147.371 219.937 146.428C219.196 145.418 218.254 144.644 217.109 144.105C216.032 143.499 214.887 143.095 213.675 142.893C212.463 142.624 211.386 142.489 210.443 142.489C207.75 142.489 205.831 143.061 204.686 144.206C203.541 145.351 202.969 146.63 202.969 148.044C202.969 149.256 203.339 150.434 204.08 151.579C204.888 152.724 206.403 153.565 208.625 154.104L215.796 155.72ZM267.988 155.72C270.816 156.393 273.106 157.302 274.856 158.447C276.607 159.592 277.92 160.837 278.795 162.184C279.738 163.531 280.344 164.911 280.613 166.325C280.95 167.739 281.118 169.052 281.118 170.264C281.118 172.419 280.681 174.405 279.805 176.223C278.93 178.041 277.651 179.623 275.967 180.97C274.351 182.249 272.365 183.259 270.008 184C267.652 184.741 264.992 185.111 262.029 185.111C258.932 185.111 256.037 184.774 253.343 184.101C250.65 183.495 248.529 182.754 246.98 181.879L245.768 180.566L247.283 168.143H250.616L250.919 168.547C250.919 171.51 251.828 173.866 253.646 175.617C255.464 177.3 258.158 178.142 261.726 178.142C263.612 178.142 265.194 177.974 266.473 177.637C267.82 177.233 268.864 176.762 269.604 176.223C270.412 175.617 270.985 174.977 271.321 174.304C271.658 173.563 271.826 172.89 271.826 172.284C271.826 171.813 271.793 171.308 271.725 170.769C271.658 170.23 271.456 169.692 271.119 169.153C270.783 168.547 270.278 167.975 269.604 167.436C268.931 166.83 267.955 166.325 266.675 165.921L256.979 163.497C254.757 162.958 252.939 162.184 251.525 161.174C250.111 160.164 248.967 159.053 248.091 157.841C247.283 156.562 246.711 155.215 246.374 153.801C246.105 152.387 245.97 150.973 245.97 149.559C245.97 147.337 246.408 145.384 247.283 143.701C248.159 141.95 249.337 140.536 250.818 139.459C252.367 138.314 254.151 137.473 256.171 136.934C258.191 136.328 260.38 136.025 262.736 136.025C265.699 136.025 268.426 136.395 270.917 137.136C273.409 137.809 275.328 138.55 276.674 139.358L277.987 140.57L276.876 150.367H273.745L273.341 150.064C273.341 148.583 272.937 147.371 272.129 146.428C271.389 145.418 270.446 144.644 269.301 144.105C268.224 143.499 267.079 143.095 265.867 142.893C264.655 142.624 263.578 142.489 262.635 142.489C259.942 142.489 258.023 143.061 256.878 144.206C255.734 145.351 255.161 146.63 255.161 148.044C255.161 149.256 255.532 150.434 256.272 151.579C257.08 152.724 258.595 153.565 260.817 154.104L267.988 155.72ZM323.122 195.716C322.314 197.736 321.237 199.554 319.89 201.17C318.611 202.853 317.129 204.301 315.446 205.513C313.763 206.725 311.978 207.701 310.093 208.442C308.208 209.25 306.289 209.789 304.336 210.058C303.797 210.193 303.158 210.26 302.417 210.26C301.744 210.26 300.734 210.26 299.387 210.26L298.68 210.058L298.377 204.907L298.781 204.402H300.195C301.003 204.402 301.878 204.301 302.821 204.099C303.764 203.964 304.673 203.661 305.548 203.19C307.501 202.247 309.285 200.901 310.901 199.15C312.584 197.399 313.729 195.716 314.335 194.1L317.163 186.525L309.083 168.042C308.746 167.301 308.208 165.988 307.467 164.103C306.726 162.218 305.885 160.164 304.942 157.942C303.999 155.653 302.989 153.397 301.912 151.175C300.902 148.953 299.959 147.101 299.084 145.62C298.411 144.543 297.636 143.701 296.761 143.095C295.953 142.489 294.842 142.119 293.428 141.984L292.822 141.479V138.045L293.226 137.641C294.371 137.776 295.583 137.91 296.862 138.045C298.141 138.18 299.32 138.247 300.397 138.247H308.376C309.386 138.247 310.598 138.18 312.012 138.045C313.493 137.91 314.84 137.776 316.052 137.641L316.456 138.045V141.277L316.052 141.681C314.773 141.816 313.662 142.22 312.719 142.893C311.844 143.499 311.406 144.408 311.406 145.62C311.406 146.428 311.675 147.775 312.214 149.66C312.82 151.478 313.493 153.431 314.234 155.518C315.042 157.605 315.783 159.558 316.456 161.376C317.197 163.127 317.668 164.305 317.87 164.911L322.213 177.132L327.263 164.911C327.734 163.834 328.307 162.487 328.98 160.871C329.653 159.188 330.293 157.437 330.899 155.619C331.572 153.801 332.145 152.017 332.616 150.266C333.087 148.515 333.323 146.967 333.323 145.62C333.323 144.139 332.818 143.162 331.808 142.691C330.798 142.152 329.721 141.816 328.576 141.681L328.172 141.277V138.045L328.576 137.641C329.855 137.91 331.067 138.079 332.212 138.146C333.357 138.213 334.434 138.247 335.444 138.247H343.625C344.77 138.247 345.881 138.18 346.958 138.045C348.103 137.91 349.315 137.776 350.594 137.641L350.998 138.045V141.479L350.392 141.984C349.247 142.119 348.237 142.455 347.362 142.994C346.554 143.533 345.78 144.408 345.039 145.62C344.029 147.236 342.884 149.323 341.605 151.882C340.393 154.373 339.181 156.898 337.969 159.457C336.824 162.016 335.781 164.339 334.838 166.426C333.895 168.513 333.289 169.961 333.02 170.769L323.122 195.716ZM410.914 145.014C413.068 141.782 415.627 139.493 418.59 138.146C421.552 136.732 424.616 136.025 427.781 136.025C430.137 136.025 432.595 136.463 435.154 137.338C437.78 138.146 440.136 139.526 442.224 141.479C444.378 143.364 446.129 145.889 447.476 149.054C448.89 152.151 449.597 155.989 449.597 160.568C449.597 163.665 449.125 166.695 448.183 169.658C447.307 172.553 445.927 175.146 444.042 177.435C442.224 179.724 439.901 181.576 437.073 182.99C434.245 184.404 430.912 185.111 427.074 185.111C423.438 185.111 420.206 184.202 417.378 182.384C414.617 180.566 412.26 178.176 410.308 175.213L410.005 175.415C410.139 176.56 410.207 177.805 410.207 179.152C410.274 180.431 410.308 182.317 410.308 184.808C410.308 187.03 410.308 188.915 410.308 190.464C410.308 192.013 410.308 193.359 410.308 194.504C410.375 195.649 410.409 196.625 410.409 197.433C410.476 198.308 410.543 199.184 410.611 200.059C410.745 201.406 410.88 202.449 411.015 203.19C411.217 203.931 411.587 204.503 412.126 204.907C412.664 205.446 413.506 205.782 414.651 205.917C415.795 206.052 416.906 206.119 417.984 206.119L418.287 206.422L418.489 209.957L418.388 210.26C417.916 210.26 417.176 210.226 416.166 210.159C415.156 210.159 414.112 210.125 413.035 210.058C411.957 210.058 410.914 210.024 409.904 209.957C408.894 209.957 408.153 209.957 407.682 209.957H402.43C401.958 209.957 401.251 209.957 400.309 209.957C399.366 210.024 398.356 210.058 397.279 210.058C396.201 210.125 395.191 210.159 394.249 210.159C393.306 210.226 392.599 210.26 392.128 210.26L391.926 209.957L392.128 206.523L392.633 206.119C393.643 206.119 394.619 206.052 395.562 205.917C396.572 205.85 397.346 205.513 397.885 204.907C398.423 204.503 398.76 203.931 398.895 203.19C399.097 202.449 399.265 201.406 399.4 200.059C399.467 198.914 399.501 197.837 399.501 196.827C399.568 195.884 399.602 194.807 399.602 193.595C399.669 192.383 399.703 190.902 399.703 189.151C399.77 187.468 399.804 185.246 399.804 182.485V165.214C399.804 162.453 399.804 160.198 399.804 158.447C399.804 156.629 399.77 155.08 399.703 153.801C399.703 152.522 399.669 151.377 399.602 150.367C399.534 149.357 399.467 148.246 399.4 147.034C399.332 146.293 399.164 145.654 398.895 145.115C398.625 144.509 398.39 144.105 398.188 143.903C397.582 143.095 396.774 142.624 395.764 142.489C394.754 142.287 393.676 142.186 392.532 142.186L392.128 141.782V138.348L392.532 138.045H394.35C395.158 138.045 396.1 138.045 397.178 138.045C398.255 138.045 399.366 138.045 400.511 138.045C401.723 137.978 402.867 137.944 403.945 137.944C405.089 137.877 406.099 137.776 406.975 137.641L410.51 137.136L411.116 139.055C410.914 139.526 410.779 140.402 410.712 141.681C410.644 142.893 410.611 143.937 410.611 144.812L410.914 145.014ZM437.881 160.265C437.881 158.245 437.611 156.292 437.073 154.407C436.601 152.454 435.861 150.737 434.851 149.256C433.841 147.707 432.528 146.495 430.912 145.62C429.363 144.677 427.511 144.206 425.357 144.206C423.067 144.206 421.014 144.61 419.196 145.418C417.445 146.159 415.93 147.101 414.651 148.246C413.439 149.323 412.462 150.468 411.722 151.68C411.048 152.892 410.678 153.936 410.611 154.811V166.022C410.745 166.897 411.116 167.975 411.722 169.254C412.395 170.466 413.304 171.678 414.449 172.89C415.661 174.035 417.142 175.011 418.893 175.819C420.643 176.627 422.731 177.031 425.155 177.031C427.377 177.031 429.296 176.56 430.912 175.617C432.528 174.607 433.841 173.328 434.851 171.779C435.928 170.23 436.702 168.446 437.174 166.426C437.645 164.406 437.881 162.352 437.881 160.265ZM491.514 184.404C491.043 184.404 490.336 184.37 489.393 184.303C488.45 184.236 487.44 184.168 486.363 184.101C485.286 184.101 484.276 184.067 483.333 184C482.39 184 481.683 184 481.212 184H475.758C475.287 184 474.546 184 473.536 184C472.593 184.067 471.583 184.101 470.506 184.101C469.496 184.168 468.486 184.236 467.476 184.303C466.533 184.37 465.826 184.404 465.355 184.404L465.254 184L465.456 180.566L465.759 180.162C466.769 180.162 467.813 180.128 468.89 180.061C469.967 179.926 470.775 179.59 471.314 179.051C471.785 178.58 472.122 177.974 472.324 177.233C472.526 176.492 472.694 175.449 472.829 174.102C472.896 173.631 472.93 173.159 472.93 172.688C472.997 172.217 473.031 171.712 473.031 171.173C473.098 170.634 473.132 169.995 473.132 169.254C473.132 168.513 473.132 167.604 473.132 166.527V155.114C473.132 153.835 473.132 152.825 473.132 152.084C473.132 151.276 473.098 150.603 473.031 150.064C473.031 149.525 472.997 149.054 472.93 148.65C472.93 148.179 472.896 147.64 472.829 147.034C472.694 146.361 472.492 145.721 472.223 145.115C471.954 144.509 471.718 144.105 471.516 143.903C470.843 143.028 470.001 142.523 468.991 142.388C467.981 142.253 466.937 142.186 465.86 142.186L465.456 141.782V138.348L465.86 138.045H471.011C472.56 138.045 474.209 138.045 475.96 138.045C477.711 137.978 479.259 137.843 480.606 137.641L484.141 137.136L484.747 139.055C484.612 139.324 484.478 139.762 484.343 140.368C484.276 140.907 484.208 141.513 484.141 142.186C484.141 142.792 484.107 143.432 484.04 144.105C484.04 144.711 484.04 145.216 484.04 145.62C484.04 146.159 484.006 146.664 483.939 147.135C483.939 147.539 483.939 148.044 483.939 148.65C483.939 149.189 483.905 149.896 483.838 150.771C483.838 151.646 483.838 152.724 483.838 154.003V165.315C483.838 166.662 483.838 167.773 483.838 168.648C483.905 169.456 483.939 170.163 483.939 170.769C484.006 171.375 484.04 171.947 484.04 172.486C484.107 172.957 484.175 173.496 484.242 174.102C484.377 175.516 484.511 176.593 484.646 177.334C484.848 178.007 485.218 178.58 485.757 179.051C486.296 179.59 487.036 179.926 487.979 180.061C488.989 180.128 489.999 180.162 491.009 180.162L491.514 180.667L491.716 184L491.514 184.404ZM471.011 122.087C471.011 121.279 471.179 120.471 471.516 119.663C471.853 118.855 472.324 118.148 472.93 117.542C473.536 116.869 474.209 116.364 474.95 116.027C475.758 115.623 476.6 115.421 477.475 115.421C479.158 115.421 480.673 116.128 482.02 117.542C483.434 118.889 484.141 120.404 484.141 122.087C484.141 122.962 483.939 123.804 483.535 124.612C483.198 125.353 482.693 126.026 482.02 126.632C481.414 127.238 480.707 127.709 479.899 128.046C479.091 128.383 478.283 128.551 477.475 128.551C475.724 128.551 474.209 127.911 472.93 126.632C471.651 125.353 471.011 123.838 471.011 122.087ZM506.731 151.68L507.539 138.045L507.842 137.439C510.67 137.574 513.397 137.708 516.023 137.843C518.649 137.91 521.006 137.978 523.093 138.045C525.248 138.045 527.066 138.045 528.547 138.045C530.096 138.045 531.173 138.045 531.779 138.045H540.364C540.97 138.045 541.947 138.011 543.293 137.944C544.707 137.809 545.987 137.641 547.131 137.439L547.737 138.247L547.434 139.863C546.694 140.738 545.684 142.018 544.404 143.701C543.192 145.317 541.846 147.202 540.364 149.357C538.95 151.512 537.435 153.835 535.819 156.326C534.271 158.75 532.722 161.174 531.173 163.598C529.692 165.955 528.312 168.244 527.032 170.466C525.82 172.621 524.81 174.506 524.002 176.122L524.406 176.526H527.537C531.039 176.526 533.766 176.459 535.718 176.324C537.738 176.189 539.287 175.886 540.364 175.415C541.509 174.876 542.317 174.102 542.788 173.092C543.327 172.015 543.899 170.567 544.505 168.749L544.808 168.345H549.05L547.434 183.394L546.929 184.404C546.727 184.404 546.088 184.37 545.01 184.303C543.933 184.303 542.586 184.303 540.97 184.303C539.422 184.303 537.705 184.269 535.819 184.202C534.001 184.135 532.251 184.101 530.567 184.101C528.951 184.101 527.537 184.067 526.325 184C525.113 184 524.305 184 523.901 184H520.669C519.929 184 518.919 184 517.639 184C516.427 184.067 515.114 184.101 513.7 184.101C512.286 184.168 510.906 184.202 509.559 184.202C508.213 184.269 507.135 184.337 506.327 184.404L505.62 183.596V182.182C506.496 181.307 507.573 179.994 508.852 178.243C510.199 176.492 511.647 174.506 513.195 172.284C514.744 170.062 516.326 167.705 517.942 165.214C519.626 162.655 521.174 160.164 522.588 157.74C524.07 155.316 525.349 153.027 526.426 150.872C527.571 148.65 528.446 146.765 529.052 145.216L528.648 144.812H521.073C519.053 144.812 517.437 144.947 516.225 145.216C515.081 145.418 514.172 145.822 513.498 146.428C512.892 146.967 512.455 147.674 512.185 148.549C511.983 149.424 511.781 150.502 511.579 151.781L511.175 152.185H507.438L506.731 151.68ZM565.927 151.68L566.735 138.045L567.038 137.439C569.866 137.574 572.593 137.708 575.219 137.843C577.845 137.91 580.201 137.978 582.289 138.045C584.443 138.045 586.261 138.045 587.743 138.045C589.291 138.045 590.369 138.045 590.975 138.045H599.56C600.166 138.045 601.142 138.011 602.489 137.944C603.903 137.809 605.182 137.641 606.327 137.439L606.933 138.247L606.63 139.863C605.889 140.738 604.879 142.018 603.6 143.701C602.388 145.317 601.041 147.202 599.56 149.357C598.146 151.512 596.631 153.835 595.015 156.326C593.466 158.75 591.917 161.174 590.369 163.598C588.887 165.955 587.507 168.244 586.228 170.466C585.016 172.621 584.006 174.506 583.198 176.122L583.602 176.526H586.733C590.234 176.526 592.961 176.459 594.914 176.324C596.934 176.189 598.482 175.886 599.56 175.415C600.704 174.876 601.512 174.102 601.984 173.092C602.522 172.015 603.095 170.567 603.701 168.749L604.004 168.345H608.246L606.63 183.394L606.125 184.404C605.923 184.404 605.283 184.37 604.206 184.303C603.128 184.303 601.782 184.303 600.166 184.303C598.617 184.303 596.9 184.269 595.015 184.202C593.197 184.135 591.446 184.101 589.763 184.101C588.147 184.101 586.733 184.067 585.521 184C584.309 184 583.501 184 583.097 184H579.865C579.124 184 578.114 184 576.835 184C575.623 184.067 574.31 184.101 572.896 184.101C571.482 184.168 570.101 184.202 568.755 184.202C567.408 184.269 566.331 184.337 565.523 184.404L564.816 183.596V182.182C565.691 181.307 566.768 179.994 568.048 178.243C569.394 176.492 570.842 174.506 572.391 172.284C573.939 170.062 575.522 167.705 577.138 165.214C578.821 162.655 580.37 160.164 581.784 157.74C583.265 155.316 584.544 153.027 585.622 150.872C586.766 148.65 587.642 146.765 588.248 145.216L587.844 144.812H580.269C578.249 144.812 576.633 144.947 575.421 145.216C574.276 145.418 573.367 145.822 572.694 146.428C572.088 146.967 571.65 147.674 571.381 148.549C571.179 149.424 570.977 150.502 570.775 151.781L570.371 152.185H566.634L565.927 151.68ZM652.291 183.293C652.493 182.687 652.628 181.812 652.695 180.667C652.83 179.522 652.998 178.479 653.2 177.536L653.099 177.233C652.291 178.243 651.348 179.219 650.271 180.162C649.261 181.105 648.116 181.946 646.837 182.687C645.558 183.428 644.177 184 642.696 184.404C641.282 184.875 639.767 185.111 638.151 185.111C635.727 185.111 633.606 184.741 631.788 184C629.97 183.259 628.455 182.283 627.243 181.071C626.031 179.859 625.088 178.445 624.415 176.829C623.809 175.213 623.506 173.53 623.506 171.779C623.506 169.153 624.078 166.864 625.223 164.911C626.368 162.958 627.883 161.376 629.768 160.164C631.519 159.019 633.572 158.144 635.929 157.538C638.286 156.865 640.575 156.36 642.797 156.023C645.019 155.686 647.039 155.484 648.857 155.417C650.675 155.282 651.887 155.215 652.493 155.215H653.907C653.84 153.128 653.705 151.512 653.503 150.367C653.301 149.155 653.032 148.145 652.695 147.337C652.089 145.99 651.079 145.048 649.665 144.509C648.318 143.903 646.702 143.6 644.817 143.6C643.672 143.6 642.427 143.701 641.08 143.903C639.801 144.038 638.589 144.341 637.444 144.812C636.299 145.283 635.289 145.957 634.414 146.832C633.606 147.64 633.135 148.717 633 150.064L632.596 150.367H629.364L628.455 140.873L628.758 140.267C629.162 139.863 629.936 139.425 631.081 138.954C632.226 138.483 633.606 138.045 635.222 137.641C636.838 137.17 638.589 136.799 640.474 136.53C642.427 136.193 644.379 136.025 646.332 136.025C648.958 136.025 651.416 136.362 653.705 137.035C655.994 137.641 657.947 138.584 659.563 139.863C661.246 141.142 662.559 142.758 663.502 144.711C664.445 146.596 664.916 148.818 664.916 151.377C664.916 154.138 664.882 156.494 664.815 158.447C664.815 160.4 664.781 162.218 664.714 163.901C664.647 165.584 664.579 167.234 664.512 168.85C664.512 170.399 664.512 172.149 664.512 174.102C664.647 175.651 664.815 176.762 665.017 177.435C665.219 178.108 665.556 178.647 666.027 179.051C666.566 179.59 667.374 179.926 668.451 180.061C669.596 180.128 670.639 180.162 671.582 180.162L671.885 180.566L672.087 184L671.986 184.404C670.841 184.269 669.528 184.168 668.047 184.101C666.566 184.034 665.185 184 663.906 184C662.021 184 660.135 184 658.25 184C656.365 184.067 654.58 184.168 652.897 184.303L652.291 183.293ZM652.291 172.385C652.493 172.048 652.695 171.644 652.897 171.173C653.166 170.702 653.335 170.129 653.402 169.456L653.907 160.871H652.998C650.911 160.871 648.857 161.006 646.837 161.275C644.817 161.544 642.999 162.049 641.383 162.79C639.767 163.531 638.454 164.574 637.444 165.921C636.434 167.268 635.929 169.018 635.929 171.173C635.929 172.991 636.367 174.439 637.242 175.516C638.185 176.593 639.43 177.132 640.979 177.132C642.124 177.132 643.268 176.997 644.413 176.728C645.625 176.391 646.736 175.987 647.746 175.516C648.756 175.045 649.665 174.54 650.473 174.001C651.281 173.395 651.887 172.856 652.291 172.385ZM704.872 164.608L704.266 165.315L697.701 166.931L697.095 166.527C697.028 165.18 696.96 163.733 696.893 162.184C696.826 160.635 696.792 159.491 696.792 158.75C696.792 156.057 697.432 153.565 698.711 151.276C700.058 148.919 701.505 146.596 703.054 144.307C704.603 142.018 706.017 139.661 707.296 137.237C708.643 134.813 709.316 132.12 709.316 129.157C709.316 126.666 708.643 124.848 707.296 123.703C705.949 122.558 704.603 121.986 703.256 121.986C701.64 121.986 700.125 122.255 698.711 122.794C697.364 123.333 696.186 124.073 695.176 125.016C694.166 125.959 693.358 127.07 692.752 128.349C692.146 129.561 691.742 130.874 691.54 132.288L691.338 132.591H687.5L686.288 122.188L686.49 121.279C687.163 120.134 688.14 119.158 689.419 118.35C690.766 117.542 692.247 116.869 693.863 116.33C695.479 115.791 697.129 115.387 698.812 115.118C700.563 114.849 702.145 114.714 703.559 114.714C704.973 114.714 706.623 114.95 708.508 115.421C710.461 115.892 712.279 116.734 713.962 117.946C715.713 119.158 717.16 120.808 718.305 122.895C719.517 124.982 720.123 127.642 720.123 130.874C720.123 132.961 719.753 134.981 719.012 136.934C718.339 138.819 717.463 140.671 716.386 142.489C715.309 144.24 714.13 145.923 712.851 147.539C711.639 149.155 710.461 150.737 709.316 152.286C708.239 153.767 707.296 155.181 706.488 156.528C705.747 157.875 705.343 159.154 705.276 160.366L704.872 164.608ZM694.469 178.647C694.469 177.839 694.637 177.031 694.974 176.223C695.311 175.415 695.782 174.708 696.388 174.102C696.994 173.429 697.667 172.924 698.408 172.587C699.216 172.183 700.058 171.981 700.933 171.981C702.616 171.981 704.131 172.688 705.478 174.102C706.892 175.449 707.599 176.964 707.599 178.647C707.599 179.522 707.397 180.364 706.993 181.172C706.656 181.913 706.151 182.586 705.478 183.192C704.872 183.798 704.165 184.269 703.357 184.606C702.549 184.943 701.741 185.111 700.933 185.111C699.182 185.111 697.667 184.471 696.388 183.192C695.109 181.913 694.469 180.398 694.469 178.647Z" fill="white"/>
</svg>
